<?xml version="1.0" standalone="no"?><!DOCTYPE svg PUBLIC "-//W3C//DTD SVG 1.1//EN" "http://www.w3.org/Graphics/SVG/1.1/DTD/svg11.dtd"><svg t="1733297635539" class="icon" viewBox="0 0 1024 1024" version="1.1" xmlns="http://www.w3.org/2000/svg" p-id="5055" xmlns:xlink="http://www.w3.org/1999/xlink" width="200" height="200"><path d="M266.666667 42.666667h490.666666a68.266667 68.266667 0 0 1 66.261334 51.712L896 384H128l72.405333-289.621333A68.266667 68.266667 0 0 1 266.624 42.666667z" fill="#535456" p-id="5056"></path><path d="M841.386667 384l-59.178667-236.629333A25.6 25.6 0 0 0 757.333333 128H266.624a25.6 25.6 0 0 0-24.832 19.370667L182.656 384h658.688z" fill="#FFFFFF" p-id="5057"></path><path d="M678.4 234.666667m-64 0a64 64 0 1 0 128 0 64 64 0 1 0-128 0Z" fill="#EDEEF0" p-id="5058"></path><path d="M785.066667 405.333333a106.666667 106.666667 0 0 0-213.333334 0" fill="#EDEEF0" p-id="5059"></path><path d="M770.816 394.752l-36.949333 21.333333a63.957333 63.957333 0 0 0-111.018667 0.085334l-36.992-21.248a106.624 106.624 0 0 1 184.96-0.170667z" fill="#5BADFF" p-id="5060"></path><path d="M85.333333 768h170.666667v102.4A68.266667 68.266667 0 0 1 187.733333 938.666667h-34.133333A68.266667 68.266667 0 0 1 85.333333 870.4V768zM768 768h170.666667v102.4a68.266667 68.266667 0 0 1-68.266667 68.266667h-34.133333a68.266667 68.266667 0 0 1-68.266667-68.266667V768z" fill="#535456" p-id="5061"></path><path d="M113.152 384h797.696a102.4 102.4 0 0 1 101.888 112.597333l-22.186667 221.866667A102.4 102.4 0 0 1 888.661333 810.666667H135.338667a102.4 102.4 0 0 1-101.888-92.202667l-22.186667-221.866667A102.4 102.4 0 0 1 113.152 384z" fill="#535456" p-id="5062"></path><path d="M516.693333 421.290667l38.101334 25.386666a3.413333 3.413333 0 0 1-2.986667 6.058667l-37.12-12.373333a8.533333 8.533333 0 0 0-5.376 0l-37.12 12.373333a3.413333 3.413333 0 0 1-2.986667-6.058667l38.058667-25.386666a8.533333 8.533333 0 0 1 9.472 0z" fill="#FFC13C" p-id="5063"></path><path d="M512 375.466667m-42.666667 0a42.666667 42.666667 0 1 0 85.333334 0 42.666667 42.666667 0 1 0-85.333334 0Z" fill="#FFC13C" p-id="5064"></path><path d="M512 375.466667m-42.666667 0a42.666667 42.666667 0 1 0 85.333334 0 42.666667 42.666667 0 1 0-85.333334 0Z" fill="#FFFFFF" p-id="5065"></path><path d="M896 298.666667h68.266667c9.386667 0 17.066667 7.68 17.066666 17.066666V341.333333a42.666667 42.666667 0 0 1-42.666666 42.666667h-68.266667a17.066667 17.066667 0 0 1-17.066667-17.066667V341.333333a42.666667 42.666667 0 0 1 42.666667-42.666666zM59.733333 298.666667H128a42.666667 42.666667 0 0 1 42.666667 42.666666v25.6a17.066667 17.066667 0 0 1-17.066667 17.066667H85.333333a42.666667 42.666667 0 0 1-42.666666-42.666667v-25.6c0-9.386667 7.68-17.066667 17.066666-17.066666z" fill="#535456" p-id="5066"></path><path d="M374.058667 469.333333h275.882666a102.4 102.4 0 0 1 101.376 116.906667l-13.44 93.866667A102.4 102.4 0 0 1 636.501333 768H387.498667A102.4 102.4 0 0 1 286.122667 680.106667L272.64 586.24A102.4 102.4 0 0 1 374.058667 469.333333z" fill="#FFFFFF" p-id="5067"></path><path d="M320 512m8.533333 0l25.6 0q8.533333 0 8.533334 8.533333l0 196.266667q0 8.533333-8.533334 8.533333l-25.6 0q-8.533333 0-8.533333-8.533333l0-196.266667q0-8.533333 8.533333-8.533333Z" fill="#CACBCC" p-id="5068"></path><path d="M405.333333 512m8.533334 0l25.6 0q8.533333 0 8.533333 8.533333l0 196.266667q0 8.533333-8.533333 8.533333l-25.6 0q-8.533333 0-8.533334-8.533333l0-196.266667q0-8.533333 8.533334-8.533333Z" fill="#CACBCC" p-id="5069"></path><path d="M490.666667 512m8.533333 0l25.6 0q8.533333 0 8.533333 8.533333l0 196.266667q0 8.533333-8.533333 8.533333l-25.6 0q-8.533333 0-8.533333-8.533333l0-196.266667q0-8.533333 8.533333-8.533333Z" fill="#CACBCC" p-id="5070"></path><path d="M576 512m8.533333 0l25.6 0q8.533333 0 8.533334 8.533333l0 196.266667q0 8.533333-8.533334 8.533333l-25.6 0q-8.533333 0-8.533333-8.533333l0-196.266667q0-8.533333 8.533333-8.533333Z" fill="#CACBCC" p-id="5071"></path><path d="M661.333333 512m8.533334 0l25.6 0q8.533333 0 8.533333 8.533333l0 196.266667q0 8.533333-8.533333 8.533333l-25.6 0q-8.533333 0-8.533334-8.533333l0-196.266667q0-8.533333 8.533334-8.533333Z" fill="#CACBCC" p-id="5072"></path><path d="M149.333333 554.666667m-64 0a64 64 0 1 0 128 0 64 64 0 1 0-128 0Z" fill="#FFFFFF" p-id="5073"></path><path d="M874.666667 554.666667m-64 0a64 64 0 1 0 128 0 64 64 0 1 0-128 0Z" fill="#FFFFFF" p-id="5074"></path></svg>