<?xml version="1.0" standalone="no"?><!DOCTYPE svg PUBLIC "-//W3C//DTD SVG 1.1//EN" "http://www.w3.org/Graphics/SVG/1.1/DTD/svg11.dtd"><svg t="1733298276059" class="icon" viewBox="0 0 1024 1024" version="1.1" xmlns="http://www.w3.org/2000/svg" p-id="7740" xmlns:xlink="http://www.w3.org/1999/xlink" width="200" height="200"><path d="M511.363519 181.266171a34.869523 34.869523 0 0 0 34.869523-34.869523v-110.696898a34.869523 34.869523 0 0 0-69.739046 0v110.696898a34.869523 34.869523 0 0 0 34.869523 34.869523z m0 0M230.193396 276.742246A34.869523 34.869523 0 0 0 279.176774 227.758869L200.858718 148.887329a34.869523 34.869523 0 0 0-49.536862 49.536862z m0 0M37.304051 543.521772h110.696898a34.869523 34.869523 0 0 0 0-69.739046h-110.696898a34.869523 34.869523 0 0 0 0 69.739046z m0 0M838.749596 508.928991a34.869523 34.869523 0 0 0 34.869523 34.869523h110.696899a34.869523 34.869523 0 0 0 0-69.739046h-110.696899a34.869523 34.869523 0 0 0-34.869523 34.869523z m0 0M767.626839 287.258452a34.592781 34.592781 0 0 0 24.63006-10.239463l78.87154-78.871541a34.869523 34.869523 0 0 0-49.536862-49.260119l-78.594798 78.87154a34.869523 34.869523 0 0 0 24.63006 59.499583z m0 0" fill="#F8AD4B" p-id="7741"></path><path d="M866.147079 650.344279a282.830576 282.830576 0 0 0-65.31117-156.636111 290.302617 290.302617 0 0 0-581.158718 14.944081v23.799833a134.773474 134.773474 0 0 0-87.173808 122.873558A188.738212 188.738212 0 0 0 193.940162 1023.946312h636.507167a188.184728 188.184728 0 0 0 35.69975-373.602033zM511.363519 288.365421a221.393797 221.393797 0 0 1 203.959035 136.433927l-16.05105-7.748783A284.491029 284.491029 0 0 0 334.525223 539.924123a133.943247 133.943247 0 0 0-43.17179-14.113855v-16.881277a221.393797 221.393797 0 0 1 221.393797-221.393797zM912.363034 918.784258a117.615455 117.615455 0 0 1-83.022674 34.592781h-636.507167a118.999166 118.999166 0 0 1-16.604535-236.614621 34.869523 34.869523 0 0 0 29.057936-42.618306 65.587912 65.587912 0 0 1-1.937196-15.497565 65.034428 65.034428 0 0 1 59.222841-64.757686h5.811587a64.757686 64.757686 0 0 1 50.367089 24.076575 34.869523 34.869523 0 0 0 27.674225 12.730144h6.088329a34.869523 34.869523 0 0 0 27.674225-22.969607 214.475241 214.475241 0 0 1 359.76492-75.827375 213.645014 213.645014 0 0 1 56.732161 145.289679v3.044165c0 0.830227 0 0 0 0a34.869523 34.869523 0 0 0 35.976492 36.253234 118.999166 118.999166 0 0 1 115.955001 118.722424 117.338713 117.338713 0 0 1-35.146265 83.022674z m0 0" fill="#3295FC" p-id="7742"></path></svg>