<?xml version="1.0" standalone="no"?><!DOCTYPE svg PUBLIC "-//W3C//DTD SVG 1.1//EN" "http://www.w3.org/Graphics/SVG/1.1/DTD/svg11.dtd"><svg t="1736697820011" class="icon" viewBox="0 0 1024 1024" version="1.1" xmlns="http://www.w3.org/2000/svg" p-id="5292" xmlns:xlink="http://www.w3.org/1999/xlink" width="200" height="200"><path d="M378 685.2c-50.8 0-93.6-42.9-93.6-93.6 0-50.4 42-91.4 93.6-91.4 8.9 0 17.8 1.2 25.8 3.5l1.1 0.3 103.2-104.2-0.8-1.3c-9-14.6-14-31.9-14-48.7 0-24.6 9.4-47.7 26.6-64.8 17.1-17.1 40.1-26.6 64.8-26.6 51.6 0 93.6 41 93.6 91.4 0 8.9-1.2 17.8-3.5 25.8l-0.4 1.3 97.1 73.8 1.2-0.7c14.6-9 31.9-14 48.7-14 51.6 0 93.6 41 93.6 91.4 0 50.4-42 91.4-93.6 91.4-51.6 0-93.6-41-93.6-91.4 0-8.9 1.2-17.8 3.5-25.8l0.4-1.3-97.1-73.8-1.2 0.7c-14.6 9-31.9 14-48.7 14-8.8 0-17.7-1.2-25.7-3.5l-1.2-0.3-101.1 106.3 0.8 1.3c9.1 14.6 14.1 32 14.1 48.8 0 50.4-42 91.4-93.6 91.4z" p-id="5293"></path><path d="M205.2 870.1c-7.8 0-28.6 0-44-15.5-15.2-15.2-22.3-32.8-22.3-55.4v-13.3h-22.4c-16.9 0-32.2-15.4-32.2-32.2 0-20.2 16.4-32.2 32.2-32.2h22.4v-49.4h-22.4c-15.8 0-32.2-12-32.2-32.2 0-20.2 16.4-32.2 32.2-32.2h22.4v-49.4h-22.4c-16.9 0-32.2-15.3-32.2-32.2 0-20.2 16.4-32.2 32.2-32.2h22.4v-49.4h-22.4c-16.9 0-32.2-15.3-32.2-32.2 0-20.2 16.4-32.2 32.2-32.2h22.4v-49.4h-22.4c-16.9 0-32.2-15.3-32.2-32.2 0-16.1 13.7-30.3 29.3-30.3 1.4 0 2.7 0.1 4.1 0.3h21.2v-49.4h-22.4c-16.9 0-32.2-15.4-32.2-32.2 0-20.2 16.4-32.2 32.2-32.2H171c15.8 0 32.2 12 32.2 32.2v607.6c0 2.9 0.1 5.4 0.4 7.1l0.3 1.7h695.3c17.5 0 32.2 15.8 32.2 34.5 0 20.2-16.4 32.2-32.2 32.2h-694z" p-id="5294"></path></svg>