<?xml version="1.0" standalone="no"?><!DOCTYPE svg PUBLIC "-//W3C//DTD SVG 1.1//EN" "http://www.w3.org/Graphics/SVG/1.1/DTD/svg11.dtd"><svg t="1736698976551" class="icon" viewBox="0 0 1028 1024" version="1.1" xmlns="http://www.w3.org/2000/svg" p-id="6315" xmlns:xlink="http://www.w3.org/1999/xlink" width="200.78125" height="200"><path d="M179.2 665.6c0 46.933333 38.4 85.333333 85.333333 85.333333s85.333333-38.4 85.333334-85.333333-38.4-85.333333-85.333334-85.333333-85.333333 38.4-85.333333 85.333333z m110.933333 0c0 12.8-8.533333 21.333333-21.333333 21.333333s-21.333333-8.533333-21.333333-21.333333 8.533333-21.333333 21.333333-21.333333 21.333333 8.533333 21.333333 21.333333zM780.8 473.6c8.533333-8.533333 12.8-21.333333 8.533333-34.133333l-38.4-179.2c-8.533333-38.4-42.666667-68.266667-85.333333-68.266667H358.4c-38.4 0-76.8 29.866667-85.333333 68.266667l-38.4 179.2c-4.266667 12.8 0 25.6 8.533333 34.133333 8.533333 8.533333 21.333333 17.066667 34.133333 17.066667h469.333334c12.8 0 25.6-4.266667 34.133333-17.066667zM328.533333 405.333333l29.866667-128h307.2l29.866667 128H328.533333z" p-id="6316"></path><path d="M951.466667 384l-29.866667-12.8-42.666667-192c-17.066667-76.8-85.333333-136.533333-166.4-136.533333H311.466667C230.4 42.666667 162.133333 98.133333 145.066667 174.933333l-42.666667 192-29.866667 17.066667C25.6 405.333333 0 448 0 499.2V768c0 72.533333 55.466667 128 128 128h51.2c17.066667 51.2 64 85.333333 119.466667 85.333333s102.4-34.133333 119.466666-85.333333h170.666667c25.6 0 42.666667-17.066667 42.666667-42.666667s-17.066667-42.666667-42.666667-42.666666H384c-25.6 0-42.666667 17.066667-42.666667 42.666666s-17.066667 42.666667-42.666666 42.666667-42.666667-17.066667-42.666667-42.666667-17.066667-42.666667-42.666667-42.666666H128c-21.333333 0-42.666667-17.066667-42.666667-42.666667v-268.8c0-17.066667 8.533333-29.866667 25.6-38.4l46.933334-21.333333c12.8-4.266667 21.333333-17.066667 21.333333-29.866667l46.933333-213.333333c8.533333-38.4 42.666667-68.266667 85.333334-68.266667h405.333333c38.4 0 76.8 29.866667 85.333333 68.266667l46.933334 213.333333c4.266667 12.8 12.8 21.333333 21.333333 29.866667l46.933333 21.333333c12.8 8.533333 25.6 21.333333 25.6 38.4v72.533333c0 25.6 17.066667 42.666667 42.666667 42.666667s42.666667-17.066667 42.666667-42.666667v-72.533333c-4.266667-51.2-29.866667-93.866667-76.8-115.2z" p-id="6317"></path><path d="M814.933333 917.333333l-25.6-12.8v-128h-81.066666v46.933334h34.133333v85.333333c-12.8 8.533333-25.6 17.066667-38.4 29.866667l29.866667 42.666666c12.8-17.066667 29.866667-42.666667 38.4-42.666666 8.533333 0 21.333333 8.533333 34.133333 17.066666 25.6 12.8 51.2 17.066667 93.866667 17.066667 34.133333 0 85.333333 0 110.933333-4.266667 0-12.8 8.533333-34.133333 12.8-46.933333-34.133333 4.266667-89.6 8.533333-119.466667 8.533333-38.4 4.266667-68.266667 0-89.6-12.8zM742.4 665.6l-38.4 25.6c17.066667 17.066667 42.666667 42.666667 51.2 55.466667l38.4-29.866667c-8.533333-12.8-34.133333-34.133333-51.2-51.2z" p-id="6318"></path><path d="M802.133333 814.933333v42.666667h81.066667v72.533333h46.933333v-72.533333h46.933334c0 12.8-4.266667 21.333333-4.266667 21.333333-4.266667 4.266667-4.266667 4.266667-8.533333 4.266667H938.666667c4.266667 8.533333 8.533333 25.6 12.8 38.4h34.133333c8.533333 0 17.066667-4.266667 25.6-12.8 8.533333-8.533333 12.8-29.866667 12.8-76.8v-17.066667h-93.866667v-21.333333h76.8v-42.666667h-76.8v-21.333333h85.333334v-42.666667h-85.333334v-29.866666h-46.933333v29.866666h-76.8v42.666667h76.8v21.333333h-64v42.666667h64v21.333333h-81.066667z" p-id="6319"></path></svg>